<svg width="13" height="12" viewBox="0 0 13 12" fill="none" xmlns="http://www.w3.org/2000/svg">
<path d="M10.41 8.01997H4.68999L3.47998 3.21997H11.62L10.41 8.01997Z" stroke="#2A2D3F" stroke-linecap="round" stroke-linejoin="round"/>
<path d="M3.47997 3.21999L2.94997 1.10999H0.749969" stroke="#2A2D3F" stroke-linecap="round" stroke-linejoin="round"/>
<path d="M5.71997 10.9C5.71997 10.44 5.34997 10.07 4.88997 10.07C4.42997 10.07 4.05997 10.44 4.05997 10.9C4.05997 11.36 4.42997 11.73 4.88997 11.73C5.34997 11.73 5.71997 11.36 5.71997 10.9Z" fill="#2A2D3F"/>
<path d="M11.05 10.9C11.05 10.44 10.68 10.07 10.22 10.07C9.75996 10.07 9.38995 10.44 9.38995 10.9C9.38995 11.36 9.75996 11.73 10.22 11.73C10.68 11.73 11.05 11.36 11.05 10.9Z" fill="#2A2D3F"/>
</svg>
