<svg width="36" height="7" viewBox="0 0 36 7" fill="none" xmlns="http://www.w3.org/2000/svg">
<path d="M4.33997 0.859957L4.87998 2.20996C4.92998 2.33996 5.05999 2.42997 5.19999 2.43997L6.64997 2.53998C6.98997 2.55998 7.12997 2.98998 6.86997 3.19998L5.75999 4.12998C5.64999 4.21998 5.59999 4.36998 5.63999 4.50998L5.98997 5.91998C6.06997 6.24998 5.70999 6.50996 5.41999 6.32996L4.18998 5.55997C4.06998 5.47997 3.90999 5.47997 3.78999 5.55997L2.55997 6.32996C2.26997 6.50996 1.90997 6.24998 1.98997 5.91998L2.33997 4.50998C2.36997 4.36998 2.32998 4.21998 2.21998 4.12998L1.10996 3.19998C0.849963 2.97998 0.989964 2.55998 1.32996 2.53998L2.77998 2.43997C2.91998 2.42997 3.04998 2.33996 3.09998 2.20996L3.63999 0.859957C3.76999 0.549957 4.20997 0.549957 4.33997 0.859957Z" fill="#ECA20D"/>
<path d="M11.51 0.859957L12.05 2.20996C12.1 2.33996 12.23 2.42997 12.37 2.43997L13.82 2.53998C14.16 2.55998 14.3 2.98998 14.04 3.19998L12.93 4.12998C12.82 4.21998 12.77 4.36998 12.81 4.50998L13.16 5.91998C13.24 6.24998 12.88 6.50996 12.59 6.32996L11.36 5.55997C11.24 5.47997 11.08 5.47997 10.96 5.55997L9.72999 6.32996C9.43999 6.50996 9.07998 6.24998 9.15998 5.91998L9.50999 4.50998C9.53999 4.36998 9.49999 4.21998 9.38999 4.12998L8.27998 3.19998C8.01998 2.97998 8.15998 2.55998 8.49998 2.53998L9.94999 2.43997C10.09 2.42997 10.22 2.33996 10.27 2.20996L10.81 0.859957C10.94 0.549957 11.38 0.549957 11.51 0.859957Z" fill="#ECA20D"/>
<path d="M18.68 0.859957L19.22 2.20996C19.27 2.33996 19.4 2.42997 19.54 2.43997L20.99 2.53998C21.33 2.55998 21.47 2.98998 21.21 3.19998L20.1 4.12998C19.99 4.21998 19.94 4.36998 19.98 4.50998L20.33 5.91998C20.41 6.24998 20.05 6.50996 19.76 6.32996L18.53 5.55997C18.41 5.47997 18.25 5.47997 18.13 5.55997L16.9 6.32996C16.61 6.50996 16.25 6.24998 16.33 5.91998L16.68 4.50998C16.71 4.36998 16.67 4.21998 16.56 4.12998L15.45 3.19998C15.19 2.97998 15.33 2.55998 15.67 2.53998L17.12 2.43997C17.26 2.42997 17.39 2.33996 17.44 2.20996L17.98 0.859957C18.11 0.549957 18.55 0.549957 18.68 0.859957Z" fill="#ECA20D"/>
<path d="M25.85 0.859957L26.39 2.20996C26.44 2.33996 26.57 2.42997 26.71 2.43997L28.16 2.53998C28.5 2.55998 28.64 2.98998 28.38 3.19998L27.27 4.12998C27.16 4.21998 27.11 4.36998 27.15 4.50998L27.5 5.91998C27.58 6.24998 27.22 6.50996 26.93 6.32996L25.7 5.55997C25.58 5.47997 25.42 5.47997 25.3 5.55997L24.07 6.32996C23.78 6.50996 23.42 6.24998 23.5 5.91998L23.85 4.50998C23.88 4.36998 23.84 4.21998 23.73 4.12998L22.62 3.19998C22.36 2.97998 22.5 2.55998 22.84 2.53998L24.29 2.43997C24.43 2.42997 24.56 2.33996 24.61 2.20996L25.15 0.859957C25.28 0.549957 25.72 0.549957 25.85 0.859957Z" fill="#ECA20D"/>
<path d="M33.02 0.859957L33.56 2.20996C33.61 2.33996 33.74 2.42997 33.88 2.43997L35.33 2.53998C35.67 2.55998 35.81 2.98998 35.55 3.19998L34.44 4.12998C34.33 4.21998 34.28 4.36998 34.32 4.50998L34.67 5.91998C34.75 6.24998 34.39 6.50996 34.1 6.32996L32.87 5.55997C32.75 5.47997 32.59 5.47997 32.47 5.55997L31.24 6.32996C30.95 6.50996 30.59 6.24998 30.67 5.91998L31.02 4.50998C31.05 4.36998 31.01 4.21998 30.9 4.12998L29.79 3.19998C29.53 2.97998 29.67 2.55998 30.01 2.53998L31.46 2.43997C31.6 2.42997 31.73 2.33996 31.78 2.20996L32.32 0.859957C32.45 0.549957 32.89 0.549957 33.02 0.859957Z" stroke="#ECA20D" stroke-width="0.47" stroke-miterlimit="10"/>
</svg>
